<svg width="12" height="12" viewBox="0 0 12 12" fill="none" xmlns="http://www.w3.org/2000/svg">
<path d="M7.54278 6L11.6805 1.8623C12.1065 1.43627 12.1065 0.745546 11.6805 0.31952C11.2545 -0.106506 10.5637 -0.106507 10.1377 0.31952L6 4.45722L1.8623 0.31952C1.43627 -0.106506 0.745546 -0.106506 0.31952 0.31952C-0.106507 0.745547 -0.106507 1.43627 0.31952 1.8623L4.45722 6L0.31952 10.1377C-0.106507 10.5637 -0.106506 11.2545 0.31952 11.6805C0.745547 12.1065 1.43627 12.1065 1.8623 11.6805L6 7.54278L10.1377 11.6805C10.5637 12.1065 11.2545 12.1065 11.6805 11.6805C12.1065 11.2545 12.1065 10.5637 11.6805 10.1377L7.54278 6Z" fill="white"/>
</svg>
