<svg width="16" height="16" viewBox="0 0 16 16" fill="none" xmlns="http://www.w3.org/2000/svg">
<path d="M10.057 8L15.574 2.48306C16.142 1.91503 16.142 0.994062 15.574 0.426027C15.0059 -0.142009 14.085 -0.142009 13.5169 0.426027L8 5.94296L2.48306 0.426027C1.91503 -0.142008 0.994062 -0.142008 0.426026 0.426027C-0.142009 0.994062 -0.142009 1.91503 0.426026 2.48306L5.94296 8L0.426027 13.5169C-0.142009 14.085 -0.142009 15.0059 0.426026 15.574C0.994062 16.142 1.91503 16.142 2.48306 15.574L8 10.057L13.5169 15.574C14.085 16.142 15.0059 16.142 15.574 15.574C16.142 15.0059 16.142 14.085 15.574 13.5169L10.057 8Z" fill="#353535"/>
</svg>
