<svg width="15" height="16" viewBox="0 0 15 16" fill="none" xmlns="http://www.w3.org/2000/svg">
<path d="M8.99982 15.4991H1.5007C1.0988 15.5131 0.709149 15.3596 0.424793 15.0752C0.140437 14.7909 -0.01309 14.4012 0.000876073 13.9993V6.50017C-0.01309 6.09828 0.140437 5.70862 0.424793 5.42427C0.709149 5.13991 1.0988 4.98638 1.5007 5.00035H4.50035V2.0007C4.48638 1.5988 4.63991 1.20915 4.92427 0.924793C5.20862 0.640437 5.59828 0.48691 6.00017 0.500876H13.4993C13.9012 0.48691 14.2909 0.640437 14.5752 0.924793C14.8596 1.20915 15.0131 1.5988 14.9991 2.0007V9.49982C15.0129 9.90166 14.8593 10.2912 14.575 10.5755C14.2907 10.8598 13.9011 11.0134 13.4993 10.9996H10.4996V13.9993C10.5134 14.4011 10.3598 14.7907 10.0755 15.075C9.79118 15.3593 9.40166 15.5129 8.99982 15.4991ZM1.5007 6.50017V13.9993H8.99982V10.9996H6.00017C5.59834 11.0134 5.20882 10.8598 4.92451 10.5755C4.64021 10.2912 4.48661 9.90166 4.50035 9.49982V6.50017H1.5007ZM6.00017 2.0007V9.49982H13.4993V2.0007H6.00017Z" fill="white"/>
</svg>
