<svg width="9" height="10" viewBox="0 0 9 10" fill="none" xmlns="http://www.w3.org/2000/svg">
<path d="M7.5 7.06827C7.12 7.06827 6.78 7.21888 6.52 7.45482L2.955 5.37149C2.98 5.25602 3 5.14056 3 5.02008C3 4.8996 2.98 4.78414 2.955 4.66867L6.48 2.60542C6.75 2.85643 7.105 3.01205 7.5 3.01205C8.33 3.01205 9 2.33936 9 1.50602C9 0.672691 8.33 0 7.5 0C6.67 0 6 0.672691 6 1.50602C6 1.62651 6.02 1.74197 6.045 1.85743L2.52 3.92068C2.25 3.66968 1.895 3.51406 1.5 3.51406C0.67 3.51406 0 4.18675 0 5.02008C0 5.85341 0.67 6.5261 1.5 6.5261C1.895 6.5261 2.25 6.37048 2.52 6.11948L6.08 8.20783C6.055 8.31325 6.04 8.42369 6.04 8.53414C6.04 9.34237 6.695 10 7.5 10C8.305 10 8.96 9.34237 8.96 8.53414C8.96 7.7259 8.305 7.06827 7.5 7.06827Z" fill="url(#paint0_linear_5485_13165)"/>
<defs>
<linearGradient id="paint0_linear_5485_13165" x1="-4.00738e-07" y1="-0.128202" x2="10.2575" y2="1.3931" gradientUnits="userSpaceOnUse">
<stop stop-color="#00BEDF"/>
<stop offset="1" stop-color="#0068B3"/>
</linearGradient>
</defs>
</svg>
